<?xml version="1.0" encoding="UTF-8" standalone="no"?>
<svg
   xmlns:dc="http://purl.org/dc/elements/1.1/"
   xmlns:cc="http://creativecommons.org/ns#"
   xmlns:rdf="http://www.w3.org/1999/02/22-rdf-syntax-ns#"
   xmlns:svg="http://www.w3.org/2000/svg"
   xmlns="http://www.w3.org/2000/svg"
   xmlns:sodipodi="http://sodipodi.sourceforge.net/DTD/sodipodi-0.dtd"
   xmlns:inkscape="http://www.inkscape.org/namespaces/inkscape"
   width="282.22223mm"
   height="244.70329mm"
   viewBox="0 0 1000 867.05891"
   id="svg4272"
   version="1.1"
   inkscape:version="1.0 (262b4497e3, 2020-09-04)"
   sodipodi:docname="Windows_Logo_1995.svg">
  <style
     id="style66"></style>
  <defs
     id="defs4274" />
  <sodipodi:namedview
     id="base"
     pagecolor="#ffffff"
     bordercolor="#666666"
     borderopacity="1.0"
     inkscape:pageopacity="0.0"
     inkscape:pageshadow="2"
     inkscape:zoom="0.515"
     inkscape:cx="364.22279"
     inkscape:cy="488.93225"
     inkscape:document-units="px"
     inkscape:current-layer="layer1"
     showgrid="false"
     fit-margin-top="0"
     fit-margin-left="0"
     fit-margin-right="0"
     fit-margin-bottom="0"
     inkscape:window-width="1848"
     inkscape:window-height="1015"
     inkscape:window-x="72"
     inkscape:window-y="28"
     inkscape:window-maximized="1"
     inkscape:document-rotation="0" />
  <metadata
     id="metadata4277">
    <rdf:RDF>
      <cc:Work
         rdf:about="">
        <dc:format>image/svg+xml</dc:format>
        <dc:type
           rdf:resource="http://purl.org/dc/dcmitype/StillImage" />
        <dc:title />
      </cc:Work>
    </rdf:RDF>
  </metadata>
  <g
     inkscape:label="Layer 1"
     inkscape:groupmode="layer"
     id="layer1"
     transform="translate(-265.33769,281.58699)">
    <g
       id="g1324"
       transform="matrix(8.5678092,-3.2033726,3.2033726,8.5678092,1630.8705,-286.37244)">
      <g
         id="g1272">
        <path
           id="path4518-2"
           style="fill:#000000;stroke-width:45.7876"
           d="M 745.60156 97.996094 C 682.1226 98.295679 617.98225 111.23483 553.14844 136.88672 L 550.04297 225.87305 C 607.61878 202.86779 656.33638 190.28368 696.35547 189.12891 L 688.9375 391.29492 C 644.46569 393.4891 595.42197 405.1809 543.02148 427.14453 L 540.83398 489.83789 C 589.32541 467.74768 638.31502 455.9436 687.03906 453.94141 L 680.29102 646.91211 C 623.71206 655.22735 575.04572 667.60698 534.00977 685.36914 L 530.8457 776.06445 C 663.84582 705.17124 807.77207 711.48432 964.49219 792.93945 L 987.22852 159.36914 C 907.7385 118.11998 827.21737 97.610914 745.60156 97.996094 z M 766.92969 181.44531 C 811.48789 181.37526 854.27707 190.66909 895.42773 209.9707 L 888.4707 413.62891 C 853.70492 398.95942 825.63027 391.46756 803.49805 390.8457 L 745.78906 388.81055 L 753.04492 181.76562 C 757.6924 181.55866 762.32022 181.45256 766.92969 181.44531 z M 771.22461 446.92773 C 810.8359 446.82844 849.09301 454.89497 885.82617 471.66406 L 879.57812 672.51562 C 830.69942 655.00807 783.25431 645.90924 736.51172 647.05859 L 743.58789 448.29492 C 752.87128 447.40872 762.08354 446.95065 771.22461 446.92773 z "
           transform="matrix(0.09600121,0.03589338,-0.03589338,0.09600121,-140.01555,-51.791131)" />
        <path
           style="stroke-width:4.69285; fill: #000000;"
           d="m -93.238543,-18.795411 -9.221447,0.54437 -3.12543,7.65873 9.221437,-0.86349 z"
           id="path4520-4"
           inkscape:connector-curvature="0" />
        <path
           style="stroke-width:4.69285; fill: #000000;"
           d="m -96.908353,-10.118341 -9.146357,0.6241505 -3.19583,7.65873 9.291837,-0.85879 z"
           id="path4522-2"
           inkscape:connector-curvature="0" />
        <path
           style="stroke-width:4.69285; fill: #000000;"
           d="m -100.50307,-1.3661705 -9.13697,0.53967 -3.20991,7.58834 9.29653,-0.70862 z"
           id="path4524-0"
           inkscape:connector-curvature="0" />
        <path
           style="stroke-width:4.69285; fill: #000000;"
           d="m -104.0931,7.3812995 -9.22614,0.54906 -3.12074,7.5789495 9.22145,-0.78371 z"
           id="path4526-9"
           inkscape:connector-curvature="0" />
        <path
           style="stroke-width:4.69285; fill: #000000;"
           d="m -107.68782,15.973899 -9.22145,0.54907 -3.13013,7.58364 9.29654,-0.78371 z"
           id="path4528-6"
           inkscape:connector-curvature="0" />
        <path
           style="stroke-width:4.69285; fill: #000000;"
           d="m -111.36232,24.880929 -9.22614,0.55375 -3.12074,7.65873 9.22144,-0.7837 z"
           id="path4530-0"
           inkscape:connector-curvature="0" />
        <path
           style="stroke-width:4.69285; fill: #000000;"
           d="m -115.04151,33.637779 -9.14167,0.55376 -3.20052,7.64934 9.29183,-0.86348 z"
           id="path4532-1"
           inkscape:connector-curvature="0" />
        <path
           style="stroke-width:4.69285; fill: #000000;"
           d="m -112.14602,-19.189611 -2.89549,6.95949 8.51752,-0.70392 2.89549,-6.87033 z"
           id="path4534-2"
           inkscape:connector-curvature="0" />
        <path
           d="m -110.66327,-4.6934996 2.28072,-5.5687664 -6.89919,0.5017623 -2.34534,5.6333885 z"
           id="path4536-6"
           inkscape:connector-curvature="0"
           style="fill:#000000;stroke-width:3.80121" />
        <path
           d="m -114.172,3.7290903 2.34535,-5.6333961 -6.96001,0.5663844 -2.28073,5.5687662 z"
           id="path4538-8"
           inkscape:connector-curvature="0"
           style="fill:#000000;stroke-width:3.80121" />
        <path
           style="stroke-width:4.69285; fill: #000000;"
           d="m -122.93488,6.8369295 -2.97058,6.9547995 8.67708,-0.70393 2.81101,-6.9547995 z"
           id="path4540-2"
           inkscape:connector-curvature="0" />
        <path
           d="m -126.13433,16.253313 -2.27692,5.629589 6.96001,-0.55498 2.28452,-5.640986 z"
           id="path4542-0"
           inkscape:connector-curvature="0"
           style="fill:#000000;stroke-width:3.80121" />
        <path
           d="m -129.64214,24.69955 -2.27693,5.62959 6.96762,-0.570183 2.33775,-5.633389 z"
           id="path4544-0"
           inkscape:connector-curvature="0"
           style="fill:#000000;stroke-width:3.80121" />
        <path
           style="stroke-width:4.69285; fill: #000000;"
           d="m -128.08763,39.100259 2.8861,-6.87502 -8.50813,0.61945 -2.89549,6.87972 z"
           id="path4546-0"
           inkscape:connector-curvature="0" />
        <path
           style="stroke-width:4.69285; fill: #000000;"
           d="m -112.53553,-23.014281 -7.18945,0.31442 -2.57637,6.17579 7.26453,-0.3989 z"
           id="path4548-1"
           inkscape:connector-curvature="0" />
        <path
           d="m -122.96035,-13.248279 -2.08686,4.9377677 5.88428,-0.3155031 2.03364,-4.8769456 z"
           id="path4550-3"
           inkscape:connector-curvature="0"
           style="fill:#000000;stroke-width:3.80121" />
        <path
           d="m -126.46191,-4.8666643 -2.02605,4.99858295 5.88427,-0.315495 2.02605,-4.87695335 z"
           id="path4552-5"
           inkscape:connector-curvature="0"
           style="fill:#000000;stroke-width:3.80121" />
        <path
           style="stroke-width:4.69285; fill: #000000;"
           d="m -123.3197,3.0826495 -7.26453,0.22995 -2.50128,6.17579 7.27391,-0.38482 z"
           id="path4554-3"
           inkscape:connector-curvature="0" />
        <path
           d="m -133.81335,12.786283 -2.08687,4.998584 5.94889,-0.311696 2.02225,-4.93397 z"
           id="path4556-1"
           inkscape:connector-curvature="0"
           style="fill:#000000;stroke-width:3.80121" />
        <path
           d="m -137.25077,21.201734 -2.02605,4.873146 5.82346,-0.247074 2.08686,-4.937768 z"
           id="path4558-2"
           inkscape:connector-curvature="0"
           style="fill:#000000;stroke-width:3.80121" />
        <path
           style="stroke-width:4.69285; fill: #000000;"
           d="m -136.60515,35.125419 2.50129,-6.09601 -7.18945,0.30972 -2.57637,6.08194 z"
           id="path4560-8"
           inkscape:connector-curvature="0" />
        <path
           style="stroke-width:4.69285; fill: #000000;"
           d="m -126.91442,-25.285621 -1.79267,4.37843 5.7769,-0.23934 1.87714,-4.44882 z"
           id="path4562-4"
           inkscape:connector-curvature="0" />
        <path
           d="m -130.19815,-16.067601 -1.45586,3.542721 4.68309,-0.182452 1.52048,-3.61115 z"
           id="path4564-1"
           inkscape:connector-curvature="0"
           style="fill:#000000;stroke-width:3.80121" />
        <path
           d="m -133.71065,-7.7073841 -1.45586,3.5465203 4.75151,-0.1292355 1.51288,-3.7327879 z"
           id="path4566-4"
           inkscape:connector-curvature="0"
           style="fill:#000000;stroke-width:3.80121" />
        <path
           style="stroke-width:4.69285; fill: #000000;"
           d="m -131.83722,0.3514095 -5.86606,0.31442 -1.87244,4.37843 5.86606,-0.14548 z"
           id="path4568-2"
           inkscape:connector-curvature="0" />
        <path
           d="m -140.989,9.8820486 -1.51668,3.6111414 4.81233,-0.190058 1.45586,-3.6757636 z"
           id="path4570-3"
           inkscape:connector-curvature="0"
           style="fill:#000000;stroke-width:3.80121" />
        <path
           d="m -144.49815,18.328723 -1.45966,3.607352 4.75151,-0.190067 1.45206,-3.671965 z"
           id="path4572-3"
           inkscape:connector-curvature="0"
           style="fill:#000000;stroke-width:3.80121" />
        <path
           style="stroke-width:4.69285; fill: #000000;"
           d="m -148.55314,26.678289 -1.80675,4.45821 5.86137,-0.23465 1.87714,-4.5286 z"
           id="path4574-8"
           inkscape:connector-curvature="0" />
        <path
           style="stroke-width:4.69285; fill: #000000;"
           d="m -129.49079,-27.857301 1.56272,-3.75428 -4.45352,0.62884 -1.48763,3.66981 z"
           id="path4576-1"
           inkscape:connector-curvature="0" />
        <path
           d="m -135.7866,-21.87195 -1.2658,2.980145 3.60355,-0.444739 1.26579,-3.097983 z"
           id="path4578-4"
           inkscape:connector-curvature="0"
           style="fill:#000000;stroke-width:3.80121" />
        <path
           d="m -139.29351,-13.426158 -1.26581,2.972538 3.60734,-0.44094 1.33043,-3.097982 z"
           id="path4580-1"
           inkscape:connector-curvature="0"
           style="fill:#000000;stroke-width:3.80121" />
        <path
           style="stroke-width:4.69285; fill: #000000;"
           d="m -143.17045,-4.9655905 -1.56271,3.67919 4.37373,-0.54906 1.6425,-3.83406 z"
           id="path4582-2"
           inkscape:connector-curvature="0" />
        <path
           d="m -146.55715,4.1599326 -1.19739,2.9687472 3.53893,-0.4371327 1.2696,-3.0371679 z"
           id="path4584-2"
           inkscape:connector-curvature="0"
           style="fill:#000000;stroke-width:3.80121" />
        <path
           d="m -150.07724,12.585856 -1.19738,2.972539 3.53893,-0.44094 1.26579,-3.101782 z"
           id="path4586-9"
           inkscape:connector-curvature="0"
           style="fill:#000000;stroke-width:3.80121" />
        <path
           style="stroke-width:4.69285; fill: #000000;"
           d="m -154.0297,21.056259 -1.40785,3.59941 4.37843,-0.47867 1.56272,-3.82467 z"
           id="path4588-2"
           inkscape:connector-curvature="0" />
        <path
           style="stroke-width:4.69285; fill: #000000;"
           d="m -137.70328,-35.520721 -1.08874,2.50129 3.3507,-0.0798 1.1779,-2.73593 z"
           id="path4590-5"
           inkscape:connector-curvature="0" />
        <path
           d="m -141.08556,-26.545206 -0.88567,2.090666 2.66084,-0.06464 0.88187,-2.212304 z"
           id="path4592-2"
           inkscape:connector-curvature="0"
           style="fill:#000000;stroke-width:3.80121" />
        <path
           d="m -144.59381,-18.180112 -0.82486,2.090668 h 2.59242 l 0.88568,-2.216104 z"
           id="path4594-9"
           inkscape:connector-curvature="0"
           style="fill:#000000;stroke-width:3.80121" />
        <path
           style="stroke-width:4.69285; fill: #000000;"
           d="m -148.40766,-9.6490505 -1.08874,2.57168 h 3.2803 l 1.16852,-2.73593 z"
           id="path4596-1"
           inkscape:connector-curvature="0" />
        <path
           d="m -151.87016,-0.52336505 -0.88569,2.02604485 2.65705,-0.060831 0.88188,-2.08685965 z"
           id="path4598-2"
           inkscape:connector-curvature="0"
           style="fill:#000000;stroke-width:3.80121" />
        <path
           d="m -155.37752,7.924869 -0.88569,2.086859 2.66085,-0.060831 0.94269,-2.1590869 z"
           id="path4600-1"
           inkscape:connector-curvature="0"
           style="fill:#000000;stroke-width:3.80121" />
        <path
           style="stroke-width:4.69285; fill: #000000;"
           d="m -159.26691,16.447879 -1.01835,2.58576 3.28499,-0.0892 1.09343,-2.73593 z"
           id="path4602-1"
           inkscape:connector-curvature="0" />
      </g>
    </g>
  </g>
</svg>
